<svg xmlns="http://www.w3.org/2000/svg" width="20.204" height="38.61" viewBox="0 0 20.204 38.61">
  <g id="Group_1" data-name="Group 1" transform="translate(-29.657 -83.067)">
    <path id="Path_1" data-name="Path 1" d="M48.014,171.191a4.038,4.038,0,0,0-4-2.964h-8.5a4.038,4.038,0,0,0-4,2.964l-1.722,9.741a1.476,1.476,0,0,0,1.329,1.691,1.642,1.642,0,0,0,1.852-1.273L34.792,171v23.688a1.633,1.633,0,0,0,1.74,1.5h.931a1.633,1.633,0,0,0,1.74-1.5V182.831h1.11v11.857a1.633,1.633,0,0,0,1.74,1.5h.931a1.633,1.633,0,0,0,1.74-1.5V171l1.83,10.349a1.643,1.643,0,0,0,1.853,1.273,1.476,1.476,0,0,0,1.329-1.691Z" transform="translate(0 -74.611)" fill="#75c28c" stroke="#8db0d3" stroke-miterlimit="10" stroke-width="0.2" fill-rule="evenodd"/>
    <path id="Ellipse_1" data-name="Ellipse 1" d="M4.147,0A4.341,4.341,0,0,1,8.435,4.184,4,4,0,0,1,4.288,8.226,4.341,4.341,0,0,1,0,4.043,4,4,0,0,1,4.147,0Z" transform="translate(34.142 86.998) rotate(-26.744)" fill="#75c28c" stroke="#8db0d3" stroke-width="0.2"/>
  </g>
</svg>
