<svg xmlns="http://www.w3.org/2000/svg" width="20.209" height="36.672" viewBox="0 0 20.209 36.672">
  <g id="Group_2" data-name="Group 2" transform="translate(-230.367 -94.725)">
    <path id="Path_2" data-name="Path 2" d="M296.947,99.028a4.2,4.2,0,1,1-4.2-4.2,4.2,4.2,0,0,1,4.2,4.2Z" transform="translate(-52.273)" fill="#dedede" stroke="#8db0d3" stroke-miterlimit="10" stroke-width="0.2" fill-rule="evenodd"/>
    <path id="Path_3" data-name="Path 3" d="M242.906,168.227h-4.868a4.615,4.615,0,0,0-4.055,2.729l-3.415,9.075a1.386,1.386,0,0,0,.814,1.824,1.479,1.479,0,0,0,1.841-.906l3.77-10.016-2.548,14.822h1.887v8.3a1.483,1.483,0,0,0,1.514,1.451h.841a1.483,1.483,0,0,0,1.514-1.451v-8.3h.542v8.3a1.483,1.483,0,0,0,1.514,1.451h.842a1.483,1.483,0,0,0,1.514-1.451v-8.3H246.5l-2.548-14.823,3.77,10.017a1.48,1.48,0,0,0,1.841.906,1.387,1.387,0,0,0,.814-1.824l-3.415-9.075A4.614,4.614,0,0,0,242.906,168.227Z" transform="translate(0 -64.208)" fill="#dedede" stroke="#8db0d3" stroke-miterlimit="10" stroke-width="0.2"/>
  </g>
</svg>
